<mxfile host="app.diagrams.net" modified="2021-07-06T07:54:39.530Z" agent="5.0 (Windows NT 10.0; Win64; x64) AppleWebKit/537.36 (KHTML, like Gecko) Chrome/91.0.4472.124 Safari/537.36" etag="v6KspexEvAkKzVNp1Y1d" version="14.8.4" type="github">
  <diagram id="9xRjArKXn7xN6tzEOHJw" name="Page-1">
    <mxGraphModel dx="1358" dy="762" grid="1" gridSize="10" guides="1" tooltips="1" connect="1" arrows="1" fold="1" page="1" pageScale="1" pageWidth="827" pageHeight="1169" math="0" shadow="0">
      <root>
        <mxCell id="0" />
        <mxCell id="1" parent="0" />
        <mxCell id="NDDgwHC25MAifU9fjLd7-71" value="" style="rounded=0;whiteSpace=wrap;html=1;sketch=0;strokeWidth=1;" vertex="1" parent="1">
          <mxGeometry x="310" y="100" width="500" height="520" as="geometry" />
        </mxCell>
        <mxCell id="NDDgwHC25MAifU9fjLd7-4" value="Actor" style="shape=umlActor;verticalLabelPosition=bottom;verticalAlign=top;html=1;outlineConnect=0;" vertex="1" parent="1">
          <mxGeometry x="20" y="160" width="30" height="60" as="geometry" />
        </mxCell>
        <mxCell id="NDDgwHC25MAifU9fjLd7-5" value="Actor" style="shape=umlActor;verticalLabelPosition=bottom;verticalAlign=top;html=1;outlineConnect=0;" vertex="1" parent="1">
          <mxGeometry x="20" y="410" width="30" height="60" as="geometry" />
        </mxCell>
        <mxCell id="NDDgwHC25MAifU9fjLd7-7" value="" style="endArrow=none;html=1;" edge="1" parent="1">
          <mxGeometry width="50" height="50" relative="1" as="geometry">
            <mxPoint x="70" y="200" as="sourcePoint" />
            <mxPoint x="120" y="200" as="targetPoint" />
          </mxGeometry>
        </mxCell>
        <mxCell id="NDDgwHC25MAifU9fjLd7-9" value="" style="endArrow=none;html=1;" edge="1" parent="1">
          <mxGeometry width="50" height="50" relative="1" as="geometry">
            <mxPoint x="120" y="440" as="sourcePoint" />
            <mxPoint x="120" y="200" as="targetPoint" />
          </mxGeometry>
        </mxCell>
        <mxCell id="NDDgwHC25MAifU9fjLd7-10" value="" style="endArrow=none;html=1;" edge="1" parent="1">
          <mxGeometry width="50" height="50" relative="1" as="geometry">
            <mxPoint x="120" y="440" as="sourcePoint" />
            <mxPoint x="80" y="440" as="targetPoint" />
          </mxGeometry>
        </mxCell>
        <mxCell id="NDDgwHC25MAifU9fjLd7-11" value="" style="shape=flexArrow;endArrow=classic;html=1;" edge="1" parent="1">
          <mxGeometry width="50" height="50" relative="1" as="geometry">
            <mxPoint x="140" y="210" as="sourcePoint" />
            <mxPoint x="190" y="210" as="targetPoint" />
            <Array as="points">
              <mxPoint x="140" y="210" />
            </Array>
          </mxGeometry>
        </mxCell>
        <mxCell id="NDDgwHC25MAifU9fjLd7-12" value="Actor" style="shape=umlActor;verticalLabelPosition=bottom;verticalAlign=top;html=1;outlineConnect=0;" vertex="1" parent="1">
          <mxGeometry x="220" y="160" width="30" height="60" as="geometry" />
        </mxCell>
        <mxCell id="NDDgwHC25MAifU9fjLd7-13" value="" style="endArrow=classic;html=1;" edge="1" parent="1">
          <mxGeometry width="50" height="50" relative="1" as="geometry">
            <mxPoint x="280" y="200" as="sourcePoint" />
            <mxPoint x="400" y="200" as="targetPoint" />
            <Array as="points" />
          </mxGeometry>
        </mxCell>
        <mxCell id="NDDgwHC25MAifU9fjLd7-14" value="" style="endArrow=classic;html=1;" edge="1" parent="1">
          <mxGeometry width="50" height="50" relative="1" as="geometry">
            <mxPoint x="280" y="200" as="sourcePoint" />
            <mxPoint x="400" y="320" as="targetPoint" />
          </mxGeometry>
        </mxCell>
        <mxCell id="NDDgwHC25MAifU9fjLd7-15" value="" style="endArrow=classic;html=1;" edge="1" parent="1">
          <mxGeometry width="50" height="50" relative="1" as="geometry">
            <mxPoint x="280" y="200" as="sourcePoint" />
            <mxPoint x="414" y="450" as="targetPoint" />
          </mxGeometry>
        </mxCell>
        <mxCell id="NDDgwHC25MAifU9fjLd7-16" value="&lt;font style=&quot;vertical-align: inherit&quot;&gt;&lt;font style=&quot;vertical-align: inherit&quot;&gt;주문 조회&lt;/font&gt;&lt;/font&gt;" style="ellipse;whiteSpace=wrap;html=1;" vertex="1" parent="1">
          <mxGeometry x="414" y="160" width="120" height="80" as="geometry" />
        </mxCell>
        <mxCell id="NDDgwHC25MAifU9fjLd7-17" value="" style="ellipse;whiteSpace=wrap;html=1;" vertex="1" parent="1">
          <mxGeometry x="414" y="290" width="120" height="80" as="geometry" />
        </mxCell>
        <mxCell id="NDDgwHC25MAifU9fjLd7-18" value="" style="ellipse;whiteSpace=wrap;html=1;" vertex="1" parent="1">
          <mxGeometry x="409" y="520" width="120" height="80" as="geometry" />
        </mxCell>
        <mxCell id="NDDgwHC25MAifU9fjLd7-20" value="&lt;font style=&quot;vertical-align: inherit&quot;&gt;&lt;font style=&quot;vertical-align: inherit&quot;&gt;회원정보 수정&lt;/font&gt;&lt;/font&gt;" style="text;html=1;strokeColor=none;fillColor=none;align=center;verticalAlign=middle;whiteSpace=wrap;" vertex="1" parent="1">
          <mxGeometry x="419" y="320" width="110" height="20" as="geometry" />
        </mxCell>
        <mxCell id="NDDgwHC25MAifU9fjLd7-21" value="&lt;font style=&quot;vertical-align: inherit&quot;&gt;&lt;font style=&quot;vertical-align: inherit&quot;&gt;주문 배송&lt;/font&gt;&lt;/font&gt;" style="text;html=1;strokeColor=none;fillColor=none;align=center;verticalAlign=middle;whiteSpace=wrap;strokeWidth=2;" vertex="1" parent="1">
          <mxGeometry x="411" y="550" width="116" height="20" as="geometry" />
        </mxCell>
        <mxCell id="NDDgwHC25MAifU9fjLd7-24" value="" style="ellipse;whiteSpace=wrap;html=1;" vertex="1" parent="1">
          <mxGeometry x="640" y="160" width="120" height="80" as="geometry" />
        </mxCell>
        <mxCell id="NDDgwHC25MAifU9fjLd7-25" value="" style="ellipse;whiteSpace=wrap;html=1;" vertex="1" parent="1">
          <mxGeometry x="640" y="520" width="120" height="80" as="geometry" />
        </mxCell>
        <mxCell id="NDDgwHC25MAifU9fjLd7-26" value="&lt;font style=&quot;vertical-align: inherit&quot;&gt;&lt;font style=&quot;vertical-align: inherit&quot;&gt;부분 배송&lt;/font&gt;&lt;/font&gt;" style="text;html=1;strokeColor=none;fillColor=none;align=center;verticalAlign=middle;whiteSpace=wrap;" vertex="1" parent="1">
          <mxGeometry x="645" y="550" width="110" height="20" as="geometry" />
        </mxCell>
        <mxCell id="NDDgwHC25MAifU9fjLd7-27" value="&lt;font style=&quot;vertical-align: inherit&quot;&gt;&lt;font style=&quot;vertical-align: inherit&quot;&gt;로그인&lt;/font&gt;&lt;/font&gt;" style="text;html=1;strokeColor=none;fillColor=none;align=center;verticalAlign=middle;whiteSpace=wrap;" vertex="1" parent="1">
          <mxGeometry x="645" y="190" width="110" height="20" as="geometry" />
        </mxCell>
        <mxCell id="NDDgwHC25MAifU9fjLd7-28" value="" style="endArrow=classic;dashed=1;html=1;endFill=1;strokeWidth=2;" edge="1" parent="1" target="NDDgwHC25MAifU9fjLd7-24">
          <mxGeometry width="50" height="50" relative="1" as="geometry">
            <mxPoint x="534" y="330" as="sourcePoint" />
            <mxPoint x="584" y="280" as="targetPoint" />
          </mxGeometry>
        </mxCell>
        <mxCell id="NDDgwHC25MAifU9fjLd7-39" value="" style="endArrow=classic;dashed=1;html=1;strokeWidth=2;exitX=1;exitY=0.5;exitDx=0;exitDy=0;entryX=0;entryY=0.5;entryDx=0;entryDy=0;startArrow=none;startFill=0;endFill=1;" edge="1" parent="1" source="NDDgwHC25MAifU9fjLd7-16" target="NDDgwHC25MAifU9fjLd7-24">
          <mxGeometry width="50" height="50" relative="1" as="geometry">
            <mxPoint x="360" y="300" as="sourcePoint" />
            <mxPoint x="410" y="250" as="targetPoint" />
          </mxGeometry>
        </mxCell>
        <mxCell id="NDDgwHC25MAifU9fjLd7-40" value="&lt;h1&gt;쇼핑몰 System&lt;/h1&gt;" style="text;html=1;strokeColor=none;fillColor=none;spacing=5;spacingTop=-20;whiteSpace=wrap;overflow=hidden;rounded=0;sketch=0;" vertex="1" parent="1">
          <mxGeometry x="380" y="110" width="196" height="60" as="geometry" />
        </mxCell>
        <mxCell id="NDDgwHC25MAifU9fjLd7-41" value="&amp;lt;&amp;lt;include&amp;gt;&amp;gt;" style="text;html=1;strokeColor=none;fillColor=none;align=center;verticalAlign=middle;whiteSpace=wrap;rounded=0;sketch=0;" vertex="1" parent="1">
          <mxGeometry x="480" y="160" width="200" height="40" as="geometry" />
        </mxCell>
        <mxCell id="NDDgwHC25MAifU9fjLd7-42" value="&amp;lt;&amp;lt;include&amp;gt;&amp;gt;" style="text;html=1;strokeColor=none;fillColor=none;align=center;verticalAlign=middle;whiteSpace=wrap;rounded=0;sketch=0;" vertex="1" parent="1">
          <mxGeometry x="480" y="250" width="200" height="40" as="geometry" />
        </mxCell>
        <mxCell id="NDDgwHC25MAifU9fjLd7-45" value="" style="endArrow=none;dashed=1;html=1;dashPattern=1 3;strokeWidth=1;startArrow=classic;startFill=1;strokeColor=#FF0000;" edge="1" parent="1">
          <mxGeometry width="50" height="50" relative="1" as="geometry">
            <mxPoint x="240" y="360" as="sourcePoint" />
            <mxPoint x="330" y="210" as="targetPoint" />
          </mxGeometry>
        </mxCell>
        <mxCell id="NDDgwHC25MAifU9fjLd7-46" value="" style="endArrow=none;dashed=1;html=1;dashPattern=1 3;strokeWidth=1;startArrow=classic;startFill=1;strokeColor=#FF0000;" edge="1" parent="1">
          <mxGeometry width="50" height="50" relative="1" as="geometry">
            <mxPoint x="280" y="360" as="sourcePoint" />
            <mxPoint x="350" y="280" as="targetPoint" />
          </mxGeometry>
        </mxCell>
        <mxCell id="NDDgwHC25MAifU9fjLd7-47" value="" style="endArrow=none;dashed=1;html=1;dashPattern=1 3;strokeWidth=1;startArrow=classic;startFill=1;strokeColor=#FF0000;" edge="1" parent="1">
          <mxGeometry width="50" height="50" relative="1" as="geometry">
            <mxPoint x="300" y="380" as="sourcePoint" />
            <mxPoint x="350" y="360" as="targetPoint" />
          </mxGeometry>
        </mxCell>
        <mxCell id="NDDgwHC25MAifU9fjLd7-49" value="&lt;h1&gt;연관관계&lt;/h1&gt;" style="text;html=1;strokeColor=none;fillColor=none;spacing=5;spacingTop=-20;whiteSpace=wrap;overflow=hidden;rounded=0;sketch=0;" vertex="1" parent="1">
          <mxGeometry x="190" y="370" width="120" height="50" as="geometry" />
        </mxCell>
        <mxCell id="NDDgwHC25MAifU9fjLd7-50" value="주문자" style="text;html=1;strokeColor=none;fillColor=none;align=center;verticalAlign=middle;whiteSpace=wrap;rounded=0;sketch=0;" vertex="1" parent="1">
          <mxGeometry x="200" y="240" width="72.5" height="20" as="geometry" />
        </mxCell>
        <mxCell id="NDDgwHC25MAifU9fjLd7-51" value="일반회원" style="text;html=1;strokeColor=none;fillColor=none;align=center;verticalAlign=middle;whiteSpace=wrap;rounded=0;sketch=0;" vertex="1" parent="1">
          <mxGeometry y="240" width="70" height="20" as="geometry" />
        </mxCell>
        <mxCell id="NDDgwHC25MAifU9fjLd7-52" value="우수회원" style="text;html=1;strokeColor=none;fillColor=none;align=center;verticalAlign=middle;whiteSpace=wrap;rounded=0;sketch=0;" vertex="1" parent="1">
          <mxGeometry y="490" width="70" height="20" as="geometry" />
        </mxCell>
        <mxCell id="NDDgwHC25MAifU9fjLd7-53" value="" style="endArrow=none;dashed=1;html=1;dashPattern=1 3;strokeWidth=1;startArrow=classic;startFill=1;endFill=0;strokeColor=#FF0000;" edge="1" parent="1">
          <mxGeometry width="50" height="50" relative="1" as="geometry">
            <mxPoint x="150" y="200" as="sourcePoint" />
            <mxPoint x="150" y="140" as="targetPoint" />
          </mxGeometry>
        </mxCell>
        <mxCell id="NDDgwHC25MAifU9fjLd7-54" value="&lt;h1&gt;일반화 관계&lt;/h1&gt;" style="text;html=1;strokeColor=none;fillColor=none;spacing=5;spacingTop=-20;whiteSpace=wrap;overflow=hidden;rounded=0;sketch=0;" vertex="1" parent="1">
          <mxGeometry x="80" y="100" width="140" height="40" as="geometry" />
        </mxCell>
        <mxCell id="NDDgwHC25MAifU9fjLd7-55" value="" style="endArrow=none;dashed=1;html=1;dashPattern=1 3;strokeWidth=1;startArrow=classic;startFill=1;strokeColor=#FF0000;" edge="1" parent="1">
          <mxGeometry width="50" height="50" relative="1" as="geometry">
            <mxPoint x="260" y="160" as="sourcePoint" />
            <mxPoint x="280" y="110" as="targetPoint" />
          </mxGeometry>
        </mxCell>
        <mxCell id="NDDgwHC25MAifU9fjLd7-56" value="&lt;h1&gt;액터&lt;/h1&gt;" style="text;html=1;strokeColor=none;fillColor=none;spacing=5;spacingTop=-20;whiteSpace=wrap;overflow=hidden;rounded=0;sketch=0;" vertex="1" parent="1">
          <mxGeometry x="250" y="70" width="105" height="40" as="geometry" />
        </mxCell>
        <mxCell id="NDDgwHC25MAifU9fjLd7-58" value="&lt;h1&gt;유즈케이스&lt;/h1&gt;" style="text;html=1;strokeColor=none;fillColor=none;spacing=5;spacingTop=-20;whiteSpace=wrap;overflow=hidden;rounded=0;sketch=0;" vertex="1" parent="1">
          <mxGeometry x="370" y="30" width="130" height="40" as="geometry" />
        </mxCell>
        <mxCell id="NDDgwHC25MAifU9fjLd7-59" value="" style="endArrow=none;dashed=1;html=1;dashPattern=1 3;strokeWidth=1;endFill=0;startArrow=classic;startFill=1;strokeColor=#FF0000;" edge="1" parent="1" target="NDDgwHC25MAifU9fjLd7-58">
          <mxGeometry width="50" height="50" relative="1" as="geometry">
            <mxPoint x="430" y="160" as="sourcePoint" />
            <mxPoint x="430" y="80" as="targetPoint" />
          </mxGeometry>
        </mxCell>
        <mxCell id="NDDgwHC25MAifU9fjLd7-60" value="" style="endArrow=classic;dashed=1;html=1;dashPattern=1 3;strokeWidth=1;startArrow=none;startFill=0;endFill=1;strokeColor=#FF0000;" edge="1" parent="1">
          <mxGeometry width="50" height="50" relative="1" as="geometry">
            <mxPoint x="453" y="75" as="sourcePoint" />
            <mxPoint x="670" y="150" as="targetPoint" />
          </mxGeometry>
        </mxCell>
        <mxCell id="NDDgwHC25MAifU9fjLd7-43" value="&amp;lt;&amp;lt;extend&amp;gt;&amp;gt;" style="text;html=1;strokeColor=none;fillColor=none;align=center;verticalAlign=middle;whiteSpace=wrap;rounded=0;sketch=0;" vertex="1" parent="1">
          <mxGeometry x="540" y="520" width="80" height="40" as="geometry" />
        </mxCell>
        <mxCell id="NDDgwHC25MAifU9fjLd7-61" value="" style="endArrow=none;dashed=1;html=1;exitX=1;exitY=0.75;exitDx=0;exitDy=0;startArrow=classic;startFill=1;strokeWidth=2;" edge="1" parent="1" source="NDDgwHC25MAifU9fjLd7-21" target="NDDgwHC25MAifU9fjLd7-25">
          <mxGeometry width="50" height="50" relative="1" as="geometry">
            <mxPoint x="532" y="475" as="sourcePoint" />
            <mxPoint x="637.96" y="474" as="targetPoint" />
            <Array as="points">
              <mxPoint x="580" y="560" />
            </Array>
          </mxGeometry>
        </mxCell>
        <mxCell id="NDDgwHC25MAifU9fjLd7-62" value="" style="endArrow=classic;html=1;strokeWidth=1;" edge="1" parent="1">
          <mxGeometry width="50" height="50" relative="1" as="geometry">
            <mxPoint x="280" y="200" as="sourcePoint" />
            <mxPoint x="400" y="550" as="targetPoint" />
          </mxGeometry>
        </mxCell>
        <mxCell id="NDDgwHC25MAifU9fjLd7-65" value="" style="ellipse;whiteSpace=wrap;html=1;rounded=0;sketch=0;strokeWidth=1;" vertex="1" parent="1">
          <mxGeometry x="419" y="410" width="120" height="80" as="geometry" />
        </mxCell>
        <mxCell id="NDDgwHC25MAifU9fjLd7-66" value="리뷰 등록" style="text;html=1;strokeColor=none;fillColor=none;align=center;verticalAlign=middle;whiteSpace=wrap;rounded=0;sketch=0;" vertex="1" parent="1">
          <mxGeometry x="443.5" y="440" width="71" height="20" as="geometry" />
        </mxCell>
        <mxCell id="NDDgwHC25MAifU9fjLd7-67" value="" style="endArrow=none;dashed=1;html=1;strokeWidth=1;startArrow=classic;startFill=1;strokeColor=#FF0000;" edge="1" parent="1">
          <mxGeometry width="50" height="50" relative="1" as="geometry">
            <mxPoint x="320" y="410" as="sourcePoint" />
            <mxPoint x="350" y="410" as="targetPoint" />
          </mxGeometry>
        </mxCell>
        <mxCell id="NDDgwHC25MAifU9fjLd7-68" value="" style="endArrow=none;dashed=1;html=1;strokeWidth=2;exitX=0.4;exitY=1;exitDx=0;exitDy=0;exitPerimeter=0;endFill=0;startArrow=classic;startFill=1;" edge="1" parent="1" source="NDDgwHC25MAifU9fjLd7-24">
          <mxGeometry width="50" height="50" relative="1" as="geometry">
            <mxPoint x="360" y="290" as="sourcePoint" />
            <mxPoint x="540" y="440" as="targetPoint" />
          </mxGeometry>
        </mxCell>
        <mxCell id="NDDgwHC25MAifU9fjLd7-69" value="&amp;lt;&amp;lt;include&amp;gt;&amp;gt;" style="text;html=1;strokeColor=none;fillColor=none;align=center;verticalAlign=middle;whiteSpace=wrap;rounded=0;sketch=0;" vertex="1" parent="1">
          <mxGeometry x="527" y="350" width="84" height="30" as="geometry" />
        </mxCell>
        <mxCell id="NDDgwHC25MAifU9fjLd7-72" style="edgeStyle=orthogonalEdgeStyle;curved=0;rounded=1;sketch=0;orthogonalLoop=1;jettySize=auto;html=1;exitX=1;exitY=0.5;exitDx=0;exitDy=0;entryX=1;entryY=0.25;entryDx=0;entryDy=0;startArrow=classic;startFill=1;endArrow=none;endFill=0;strokeColor=#000000;strokeWidth=2;" edge="1" parent="1" source="NDDgwHC25MAifU9fjLd7-21" target="NDDgwHC25MAifU9fjLd7-21">
          <mxGeometry relative="1" as="geometry" />
        </mxCell>
      </root>
    </mxGraphModel>
  </diagram>
</mxfile>
